<?xml version="1.0" standalone="no"?>
<!DOCTYPE svg PUBLIC "-//W3C//DTD SVG 20010904//EN"
 "http://www.w3.org/TR/2001/REC-SVG-20010904/DTD/svg10.dtd">
<svg version="1.0" xmlns="http://www.w3.org/2000/svg"
 width="1382.000000pt" height="838.000000pt" viewBox="0 0 1382.000000 838.000000"
 preserveAspectRatio="xMidYMid meet">

<g transform="translate(0.000000,838.000000) scale(0.100000,-0.100000)"
fill="#000000" stroke="none">
<path d="M6661 7483 c-50 -71 -55 -79 -309 -437 -113 -160 -242 -343 -287
-406 -45 -63 -210 -295 -366 -515 -415 -586 -497 -703 -548 -775 -25 -36 -106
-150 -180 -255 -74 -104 -191 -271 -261 -370 -70 -99 -178 -252 -240 -340 -62
-88 -140 -198 -172 -243 -32 -46 -68 -96 -79 -112 -12 -15 -20 -33 -17 -40 2
-6 82 -41 178 -76 96 -36 176 -67 178 -69 2 -2 -109 -201 -247 -443 -138 -241
-251 -444 -251 -450 0 -7 10 -14 23 -17 12 -2 256 -25 542 -50 286 -25 590
-52 675 -60 558 -54 1415 -125 1447 -120 21 3 142 14 268 25 127 11 610 53
1075 95 465 41 931 82 1035 91 105 9 196 22 202 28 10 9 10 17 -1 36 -27 52
-326 576 -418 735 -38 63 -68 119 -68 124 0 4 80 38 177 75 97 36 179 68 182
71 4 5 -124 202 -140 215 -4 3 -22 28 -40 56 -36 54 -363 522 -377 539 -4 6
-136 192 -292 415 -156 223 -336 479 -399 570 -64 91 -128 183 -143 205 -15
22 -48 69 -74 105 -39 53 -472 671 -524 747 -8 11 -62 88 -120 170 -58 81
-116 164 -130 184 -140 202 -246 349 -252 349 -4 0 -25 -26 -47 -57z m105
-458 c129 -820 254 -1604 264 -1654 22 -118 24 -119 -155 60 -91 90 -170 166
-176 168 -6 2 -87 -72 -180 -165 -144 -143 -169 -164 -164 -139 7 41 103 636
121 755 8 52 30 192 49 310 20 118 38 233 41 255 2 22 13 87 23 145 11 58 39
232 63 388 31 207 45 276 51 255 4 -15 32 -185 63 -378z m-273 180 c-3 -9 -8
-14 -10 -11 -3 3 -2 9 2 15 9 16 15 13 8 -4z m118 -132 c-26 -154 -167 -1034
-185 -1153 -7 -47 -35 -222 -61 -390 l-49 -305 -150 -152 c-83 -84 -154 -153
-158 -153 -5 0 -6 12 -2 28 7 35 102 388 115 427 5 17 77 278 160 580 82 303
157 573 165 600 28 96 147 531 163 592 8 34 17 61 19 58 2 -2 -6 -61 -17 -132z
m244 -158 c42 -154 128 -464 190 -690 62 -225 122 -444 133 -485 24 -91 88
-322 103 -370 38 -129 126 -456 122 -460 -2 -2 -75 68 -162 155 l-159 160 -56
355 c-31 195 -58 369 -61 385 -2 17 -47 297 -100 623 -93 581 -99 620 -91 611
2 -2 38 -130 81 -284z m-396 233 c-7 -13 -79 -140 -162 -283 -82 -143 -161
-280 -175 -305 -14 -25 -118 -207 -232 -405 -114 -198 -395 -688 -624 -1090
-230 -401 -431 -750 -446 -775 -15 -25 -45 -76 -66 -115 -90 -166 -174 -300
-186 -297 -26 6 -313 115 -320 121 -5 4 19 45 52 91 33 47 71 101 85 121 13
20 106 153 206 295 100 143 319 455 487 694 168 239 358 509 421 599 64 91
138 196 165 235 27 39 112 160 190 270 78 109 148 208 156 221 36 53 259 373
382 548 66 93 92 122 67 75z m-39 -569 c-89 -321 -168 -606 -175 -634 -8 -27
-64 -232 -125 -455 -62 -223 -127 -458 -144 -523 l-33 -117 -191 -192 c-105
-106 -193 -190 -195 -188 -4 4 81 234 112 305 11 25 312 820 356 940 18 50 48
131 68 180 36 92 209 548 383 1012 55 144 100 260 102 258 2 -2 -69 -266 -158
-586z m418 546 c5 -16 57 -154 115 -305 233 -613 330 -868 432 -1140 59 -157
113 -298 120 -315 7 -16 59 -151 114 -300 56 -148 118 -313 138 -365 19 -52
47 -121 60 -153 13 -32 23 -62 21 -68 -2 -5 -89 77 -195 183 -165 167 -193
200 -203 238 -23 87 -139 506 -165 600 -15 52 -43 154 -62 225 -41 150 -26 97
-228 825 -86 311 -160 578 -166 595 -5 16 -6 25 -1 20 5 -6 14 -23 20 -40z
m233 -147 c70 -101 159 -227 196 -281 37 -54 77 -110 88 -125 11 -14 106 -150
212 -302 105 -151 205 -294 222 -317 17 -23 230 -325 472 -670 243 -345 483
-686 534 -758 50 -71 121 -173 157 -225 36 -52 97 -140 136 -195 40 -54 69
-102 64 -106 -4 -4 -79 -34 -167 -67 -123 -47 -163 -58 -172 -49 -8 9 -308
528 -505 877 -14 25 -146 254 -293 510 -147 256 -302 526 -344 600 -43 74
-157 272 -253 440 -96 168 -187 325 -200 350 -14 25 -83 144 -153 265 -182
315 -182 320 6 53z m-742 -379 c-116 -305 -248 -653 -294 -774 -142 -375 -155
-409 -164 -430 -5 -11 -92 -240 -194 -508 l-184 -489 -279 -279 c-153 -153
-280 -279 -281 -279 -2 0 10 26 26 58 16 31 58 118 94 192 281 584 330 685
338 688 5 2 9 9 9 15 0 14 71 166 234 501 75 153 136 279 136 281 0 2 68 141
150 309 83 168 150 308 150 310 0 2 60 127 133 277 73 151 177 367 232 481 55
114 101 206 102 204 2 -2 -92 -252 -208 -557z m785 41 c107 -221 233 -482 346
-715 45 -93 104 -215 130 -270 26 -55 107 -221 179 -369 72 -148 131 -270 131
-271 0 -2 59 -124 131 -271 72 -148 153 -314 179 -369 128 -270 184 -386 216
-446 19 -37 34 -72 34 -79 0 -6 -125 115 -277 270 l-278 281 -48 127 c-26 70
-66 174 -88 232 -49 125 -206 537 -354 930 -59 157 -113 299 -120 315 -7 17
-29 75 -49 130 -21 55 -60 157 -87 227 -27 69 -58 150 -68 180 -11 29 -65 172
-120 317 -56 145 -101 266 -100 270 0 7 117 -226 243 -489z m-860 9 c-108
-222 -331 -683 -496 -1024 -166 -341 -341 -703 -391 -805 -49 -102 -111 -230
-137 -285 -26 -55 -94 -194 -150 -310 -56 -115 -129 -265 -161 -332 -32 -68
-60 -123 -62 -123 -4 0 -164 58 -219 79 l-27 10 90 158 c50 87 94 160 97 163
4 3 14 21 23 40 9 19 139 249 289 510 150 261 362 633 472 825 110 193 212
370 227 395 16 25 63 106 105 180 42 74 81 142 86 150 8 14 137 239 182 320
134 238 262 459 265 456 2 -1 -85 -184 -193 -407z m771 284 c37 -64 95 -166
130 -227 74 -131 401 -704 415 -726 9 -15 179 -312 218 -380 11 -19 53 -93 94
-165 41 -71 200 -348 353 -615 153 -267 338 -589 411 -717 74 -128 134 -236
134 -240 0 -7 -225 -94 -241 -93 -4 0 -13 15 -20 33 -7 17 -69 147 -137 287
-68 140 -214 442 -324 670 -110 228 -261 538 -334 689 -74 150 -134 275 -134
277 0 1 -67 141 -150 310 -82 169 -150 308 -150 310 0 2 -63 133 -141 291 -78
158 -152 313 -166 343 -14 30 -27 58 -30 63 -2 4 -2 7 1 7 2 0 34 -52 71 -117z
m-295 -1400 c12 -16 276 -283 587 -594 l565 -567 19 -168 c10 -93 21 -186 24
-207 3 -22 2 -37 -4 -35 -10 3 -8 1 -540 489 -195 178 -384 351 -421 384 -37
33 -110 100 -163 148 -71 66 -100 86 -111 80 -8 -5 -37 -29 -63 -54 -26 -25
-160 -148 -298 -273 -137 -126 -295 -270 -349 -320 -371 -341 -501 -455 -504
-441 -2 8 6 101 18 207 l22 193 167 170 c624 634 1006 1015 1017 1015 7 0 22
-12 34 -27z m74 -596 c55 -51 319 -293 586 -536 267 -244 496 -454 509 -466
l24 -23 -188 -91 c-104 -50 -194 -91 -201 -91 -8 0 -194 170 -415 378 -221
207 -409 378 -418 380 -9 1 -41 -21 -71 -50 -62 -58 -486 -457 -654 -614
l-109 -102 -186 90 c-102 49 -190 93 -194 97 -7 7 52 65 263 255 57 52 180
164 245 226 28 25 158 145 290 265 132 120 278 253 325 296 47 43 87 79 89 79
2 0 49 -42 105 -93z m-17 -557 c43 -41 187 -176 318 -300 334 -313 390 -368
385 -373 -9 -10 -781 -387 -791 -387 -5 0 -147 68 -317 150 -169 83 -346 170
-395 192 -48 23 -86 45 -85 48 3 6 109 107 533 504 83 78 175 164 205 193 30
29 58 52 62 50 3 -1 42 -36 85 -77z m-1333 -259 c-14 -118 -22 -217 -17 -222
7 -7 189 -96 1051 -515 107 -52 199 -94 206 -94 7 0 116 50 242 111 476 231
535 260 777 378 l248 121 -5 32 c-15 87 -45 392 -40 397 3 3 133 -125 289
-284 181 -185 279 -292 271 -297 -12 -7 -299 -115 -391 -148 -27 -9 -133 -49
-235 -88 -102 -38 -403 -152 -669 -252 l-484 -182 -66 26 c-36 14 -320 120
-631 236 -311 116 -574 214 -585 219 -42 18 -106 42 -294 111 -107 39 -200 74
-208 79 -11 6 57 81 273 299 158 161 289 290 291 289 1 -2 -9 -99 -23 -216z
m-716 -343 c56 -22 102 -43 102 -47 0 -3 -25 -58 -56 -121 -103 -208 -145
-303 -137 -311 5 -4 118 -30 253 -58 718 -149 1095 -231 1098 -239 1 -5 13 -7
25 -5 12 2 169 -28 349 -66 l328 -68 92 19 c51 10 210 43 353 73 143 30 460
96 705 149 245 52 546 115 670 141 124 26 229 51 233 55 9 8 -10 51 -123 283
-39 82 -70 151 -67 153 8 8 240 95 243 91 3 -2 70 -121 179 -312 12 -22 88
-154 169 -294 81 -139 145 -255 144 -256 -2 -1 -192 -19 -423 -39 -231 -20
-444 -39 -473 -42 -30 -3 -426 -38 -880 -78 l-827 -74 -370 33 c-318 29 -1950
175 -2147 192 -40 3 -68 11 -68 17 0 6 24 52 53 101 29 50 138 240 242 422
166 291 192 332 210 327 11 -4 66 -24 123 -46z m690 -259 c295 -110 699 -261
897 -335 198 -74 366 -134 374 -134 7 0 72 22 144 49 743 277 1353 504 1492
557 94 35 175 64 181 64 10 0 194 -370 194 -390 0 -4 -12 -11 -27 -14 -16 -3
-287 -60 -603 -127 -316 -66 -669 -140 -785 -164 -115 -24 -297 -62 -404 -85
l-193 -41 -217 47 c-119 25 -268 57 -331 69 -63 13 -257 53 -430 90 -381 81
-517 109 -810 170 -124 26 -226 49 -228 50 -2 2 27 66 65 142 38 76 81 164 96
196 15 31 31 57 37 57 6 0 252 -90 548 -201z"/>
<path d="M3000 7180 c0 -5 5 -10 10 -10 6 0 10 5 10 10 0 6 -4 10 -10 10 -5 0
-10 -4 -10 -10z"/>
<path d="M10180 7180 c0 -5 5 -10 10 -10 6 0 10 5 10 10 0 6 -4 10 -10 10 -5
0 -10 -4 -10 -10z"/>
<path d="M13775 7180 c3 -5 8 -10 11 -10 2 0 4 5 4 10 0 6 -5 10 -11 10 -5 0
-7 -4 -4 -10z"/>
<path d="M4145 2547 c-33 -10 -98 -31 -145 -45 l-85 -27 -3 -308 c-2 -265 0
-311 13 -331 13 -19 13 -25 3 -29 -9 -4 -10 -8 -2 -14 6 -4 14 -19 17 -33 9
-37 159 -180 188 -181 13 0 33 -3 44 -5 27 -7 148 -5 212 2 74 9 84 24 92 136
4 51 3 95 -1 96 -4 2 -8 12 -8 22 0 11 -11 31 -25 46 -16 18 -25 39 -25 60 l0
34 -57 1 c-70 1 -45 17 28 18 65 1 82 24 87 112 6 97 -4 152 -33 184 -17 17
-25 38 -25 61 l0 34 -64 0 -64 0 -17 38 c-10 20 -26 43 -37 50 -12 9 -18 26
-18 52 0 21 -3 40 -7 43 -5 2 -35 -5 -68 -16z m17 -147 l3 -75 98 -3 97 -3 0
-74 0 -74 -97 -3 -98 -3 -3 -127 -3 -128 101 0 100 0 0 -75 0 -75 -133 0 -133
0 -62 63 -62 63 2 274 3 274 85 27 c47 15 88 24 92 20 4 -3 8 -40 10 -81z"/>
<path d="M6886 2561 c-4 -5 -6 -200 -6 -434 -1 -360 2 -428 15 -453 8 -16 15
-36 15 -45 0 -9 9 -24 21 -35 18 -16 37 -19 140 -19 73 0 119 -4 119 -10 0 -5
11 4 25 20 21 26 24 40 25 111 0 50 5 85 13 93 10 11 10 14 0 18 -17 6 -19
563 -2 580 8 8 8 13 0 17 -6 4 -11 14 -11 22 0 9 -11 30 -24 47 -13 18 -26 46
-28 62 l-3 30 -147 3 c-86 1 -149 -1 -152 -7z m238 -67 c11 -29 6 -91 -8 -103
-9 -8 -43 -11 -93 -9 l-78 3 -3 49 c-5 75 -4 76 92 76 67 0 85 -3 90 -16z m1
-444 l0 -285 -92 -3 -93 -3 0 291 0 291 93 -3 92 -3 0 -285z"/>
<path d="M6332 2520 c-68 -21 -128 -42 -133 -47 -6 -6 -8 -136 -5 -324 5 -349
5 -359 16 -359 4 0 10 -12 13 -28 3 -16 36 -57 84 -104 75 -72 81 -76 133 -81
30 -3 75 -5 100 -4 25 1 47 -1 50 -4 10 -13 125 12 144 30 14 14 19 38 22 97
2 43 7 87 10 96 3 10 1 18 -5 18 -6 0 -11 9 -11 20 0 11 -11 30 -25 42 -19 16
-25 32 -25 60 l0 38 -47 1 c-36 0 -43 3 -28 9 11 5 36 9 56 9 48 1 65 24 74
97 10 90 -2 171 -31 197 -13 13 -24 37 -26 57 -3 33 -5 35 -43 38 -22 2 -43 9
-47 15 -6 9 -11 8 -18 -3 -8 -13 -11 -12 -24 5 -9 11 -16 25 -16 32 0 6 -11
20 -25 31 -19 15 -25 29 -25 61 0 52 -4 52 -168 1z m108 -120 l0 -79 98 -3 97
-3 0 -70 0 -70 -95 -5 -95 -5 -3 -127 -3 -127 98 -3 98 -3 3 -72 3 -73 -133 0
-132 0 -63 62 -63 62 0 273 c0 175 4 274 10 278 19 11 165 52 173 48 4 -2 7
-40 7 -83z"/>
<path d="M10961 2519 c-68 -21 -128 -42 -133 -47 -5 -5 -7 -149 -4 -323 5
-349 5 -359 16 -359 4 0 10 -12 13 -28 3 -16 36 -57 84 -103 l79 -77 76 -7
c96 -9 229 -1 268 17 32 14 33 16 33 168 0 93 -3 111 -14 105 -20 -13 -49 26
-49 67 l0 38 -57 0 c-69 0 -66 7 7 15 30 3 67 11 82 18 24 10 26 16 30 82 5
101 -2 196 -14 189 -19 -12 -48 28 -48 68 l0 38 -64 0 c-62 0 -64 1 -79 33 -9
18 -25 41 -37 52 -13 12 -20 31 -20 57 0 48 -5 48 -169 -3z m111 -119 l3 -75
98 -3 97 -3 0 -74 0 -74 -97 -3 -98 -3 -3 -127 -3 -128 101 0 100 0 0 -75 0
-75 -132 0 -132 0 -63 62 -63 62 0 273 c0 175 4 274 10 278 22 13 165 52 172
46 4 -3 8 -40 10 -81z"/>
<path d="M2285 2541 c-3 -5 -32 -135 -65 -288 -32 -153 -72 -340 -88 -417 -29
-134 -30 -139 -11 -143 14 -4 19 -14 19 -43 0 -51 19 -67 82 -74 94 -10 198
-12 198 -4 0 4 6 8 13 8 21 0 47 34 59 76 13 49 25 64 52 64 22 0 56 -44 56
-73 0 -9 10 -28 23 -43 22 -25 29 -27 129 -31 129 -5 185 7 194 42 3 14 1 55
-6 92 -7 36 -14 73 -15 82 -1 9 -4 23 -7 31 -11 27 -119 550 -116 563 2 7 -11
30 -27 51 -17 22 -35 55 -40 75 l-11 36 -216 3 c-130 1 -219 -1 -223 -7z m390
-60 c4 -8 155 -704 155 -717 0 -2 -44 -4 -99 -4 l-98 0 -14 73 -14 72 -98 3
c-111 3 -108 6 -122 -95 l-7 -53 -99 0 c-54 0 -99 4 -99 9 0 21 141 678 150
699 9 22 13 22 174 22 91 0 167 -4 171 -9z"/>
<path d="M2475 2318 c-12 -56 -45 -240 -45 -254 0 -11 16 -14 75 -14 41 0 75
4 75 9 0 4 -11 68 -25 141 -14 73 -25 134 -25 136 0 2 -11 4 -25 4 -17 0 -26
-7 -30 -22z"/>
<path d="M3405 2400 l-200 -5 -75 -78 -75 -78 -3 -267 c-4 -237 -2 -269 12
-281 9 -7 16 -26 16 -41 0 -15 9 -38 19 -51 l19 -24 244 -1 243 0 73 74 c40
41 75 86 79 101 3 14 9 31 12 36 3 6 4 119 1 252 l-5 243 -27 25 c-20 19 -28
36 -28 60 0 34 -1 35 -39 35 -22 0 -45 1 -53 3 -7 1 -103 0 -213 -3z m243
-132 l-3 -73 -172 -3 -173 -2 0 -40 0 -40 173 -2 172 -3 3 -119 3 -120 -53
-53 -52 -53 -218 0 -218 0 0 58 c0 92 -1 91 190 94 182 3 166 -3 162 65 -2 22
-4 23 -174 25 l-173 3 -3 103 -3 103 62 64 62 65 209 0 209 0 -3 -72z"/>
<path d="M4780 2401 c-15 -3 -56 -36 -102 -86 l-78 -81 0 -269 c-1 -180 2
-271 10 -273 5 -2 13 -21 16 -42 9 -57 34 -74 104 -75 33 0 62 -4 66 -8 4 -3
11 -4 16 0 6 3 33 7 61 9 76 6 87 21 87 119 0 51 5 86 12 93 10 10 10 15 -1
21 -11 7 -13 25 -8 81 3 39 11 78 17 85 6 8 43 14 95 17 108 6 120 16 130 104
10 99 -2 182 -31 207 -17 15 -24 31 -24 58 l0 38 -172 3 c-95 2 -184 1 -198
-1z m310 -141 c0 -69 -2 -80 -17 -80 -10 -1 -63 -2 -118 -3 l-100 -2 -3 -207
-2 -208 -95 0 -95 0 0 227 0 227 62 63 62 63 153 0 153 0 0 -80z"/>
<path d="M5373 2402 l-33 -3 0 -119 c0 -68 -4 -121 -10 -125 -14 -9 -13 -312
1 -320 6 -4 8 -13 5 -21 -3 -8 -2 -22 3 -32 5 -9 12 -24 16 -32 9 -24 55 -96
55 -87 0 4 24 -12 54 -37 68 -55 91 -59 347 -54 l198 3 16 34 c13 29 16 72 16
267 -1 240 -8 288 -48 335 -7 8 -13 20 -13 25 0 6 -35 45 -78 87 l-78 76 -210
3 c-115 2 -224 2 -241 0z m484 -124 l63 -62 0 -228 0 -228 -213 0 -213 0 -57
58 -58 58 3 110 3 109 150 6 c83 4 160 7 173 8 19 1 22 7 22 41 l0 40 -165 0
-165 0 0 75 0 75 197 0 197 0 63 -62z"/>
<path d="M5665 2003 c-96 -11 -95 -11 -95 -53 l0 -40 80 0 80 0 0 50 c0 54 3
52 -65 43z"/>
<path d="M7595 2400 l-200 -5 -3 -346 c-3 -303 -1 -347 12 -358 9 -8 16 -26
16 -41 0 -15 8 -38 18 -51 16 -19 31 -23 105 -27 113 -6 170 4 207 34 l29 25
6 -24 c7 -28 26 -31 187 -32 97 0 110 2 129 22 28 27 36 135 28 363 -5 164 -6
165 -40 230 -22 41 -61 91 -108 136 -87 85 -71 82 -386 74z m352 -122 l63 -62
0 -228 0 -228 -95 0 -95 0 0 210 0 211 -87 -3 -88 -3 -3 -207 -2 -208 -90 0
-90 0 0 290 0 290 212 0 212 0 63 -62z"/>
<path d="M8305 2402 c-76 -2 -85 -5 -81 -20 3 -9 10 -47 16 -83 5 -36 30 -156
55 -265 25 -109 48 -210 50 -224 2 -14 15 -66 27 -116 30 -121 26 -119 270
-119 224 0 217 -3 249 125 12 47 26 88 32 91 5 4 7 11 3 17 -8 14 43 250 59
277 15 23 30 183 20 214 -4 13 -13 20 -23 19 -14 -2 -17 5 -16 40 l1 42 -159
0 c-153 0 -158 -1 -158 -21 0 -11 -7 -52 -16 -92 l-17 -72 -17 40 c-9 22 -24
46 -33 53 -8 7 -18 31 -22 52 l-6 38 -74 4 c-41 2 -113 2 -160 0z m198 -149
c9 -49 27 -145 39 -215 l23 -128 31 0 31 0 22 118 c12 64 30 160 39 212 l17
95 93 3 c50 1 92 -1 92 -5 0 -4 -28 -135 -62 -291 l-63 -282 -170 2 -169 3
-63 275 c-34 151 -62 281 -63 288 0 9 25 12 94 12 l93 0 16 -87z"/>
<path d="M9424 2402 l-161 -2 -76 -79 -77 -79 0 -200 c0 -134 4 -203 11 -208
6 -3 9 -15 6 -25 -3 -11 -2 -19 3 -19 4 0 10 -14 14 -30 6 -35 91 -129 144
-162 37 -23 94 -28 303 -29 160 -1 205 13 213 64 12 74 20 245 20 439 l1 208
-27 25 c-20 18 -28 36 -28 60 l0 34 -92 3 c-51 2 -165 2 -254 0z m286 -227 l0
-165 -175 0 -175 0 0 -50 0 -50 165 0 165 0 0 -75 0 -75 -203 0 -204 0 -56 59
-57 60 0 167 0 168 62 63 62 63 208 0 208 0 0 -165z"/>
<path d="M9362 2153 c2 -27 6 -47 11 -45 4 1 45 2 92 2 l85 0 0 45 0 45 -96 0
-95 0 3 -47z"/>
<path d="M10150 2402 c-28 -4 -50 -21 -109 -83 l-74 -79 -5 -265 c-4 -227 -2
-268 10 -283 9 -9 18 -33 22 -53 4 -21 12 -42 20 -48 26 -22 403 -30 478 -10
53 14 142 99 170 162 22 51 23 58 18 295 -5 240 -5 243 -28 261 -16 11 -25 31
-29 59 l-6 42 -202 0 c-112 0 -209 1 -217 3 -7 2 -29 1 -48 -1z m408 -134 l-3
-73 -172 -3 -173 -2 0 -40 0 -40 173 -2 172 -3 3 -119 3 -120 -53 -53 -52 -53
-214 0 -213 0 3 73 3 72 173 3 173 2 -3 43 -3 42 -172 3 -173 2 0 112 0 112
57 58 57 58 209 0 208 0 -3 -72z"/>
</g>
</svg>
